<?xml version="1.0" standalone="no"?>
<!DOCTYPE svg PUBLIC "-//W3C//DTD SVG 20010904//EN"
 "http://www.w3.org/TR/2001/REC-SVG-20010904/DTD/svg10.dtd">
<svg version="1.0" xmlns="http://www.w3.org/2000/svg"
 width="128.000000pt" height="128.000000pt" viewBox="0 0 128.000000 128.000000"
 preserveAspectRatio="xMidYMid meet">

<g transform="translate(0.000000,128.000000) scale(0.100000,-0.100000)"
fill="#222" stroke="none">
<path d="M920 1271 c-64 -21 -107 -56 -279 -225 -210 -207 -231 -239 -230
-346 0 -98 40 -184 105 -226 23 -16 26 -15 67 22 69 62 73 71 37 89 -39 20
-60 63 -60 122 l0 48 183 182 c193 193 212 205 286 188 66 -14 113 -95 96
-162 -3 -15 -51 -72 -107 -129 -100 -102 -100 -102 -89 -136 6 -18 14 -57 18
-85 l8 -53 141 138 c125 122 144 144 164 197 68 183 -56 372 -250 381 -36 2
-76 0 -90 -5z"/>
<path d="M695 782 c-69 -64 -71 -68 -36 -87 56 -28 78 -113 47 -173 -21 -40
-337 -349 -369 -361 -88 -34 -187 32 -187 124 0 41 15 63 117 166 l95 97 -12
37 c-7 21 -15 60 -19 86 l-6 49 -141 -138 c-125 -122 -144 -144 -164 -197 -50
-136 3 -279 132 -350 46 -26 63 -30 133 -30 118 0 145 18 366 242 215 217 225
233 217 357 -4 56 -11 85 -31 119 -25 42 -80 98 -95 97 -4 -1 -25 -18 -47 -38z"/>
</g>
</svg>
